<svg width="512" height="512" viewBox="0 0 512 512" fill="none" xmlns="http://www.w3.org/2000/svg">
<rect width="512" height="512" fill="white"/>
<path d="M232.87 244.06C232.4 244.06 232.03 243.68 232.03 243.22L232.1 178.82C232.1 176.99 233.59 175.51 235.43 175.51C235.44 175.51 235.46 175.51 235.47 175.51L244.99 176.01L242.48 168.72C242.45 168.63 242.43 168.54 242.43 168.45C242.43 166.07 244.37 164.14 246.76 164.14H264.7C267.09 164.14 269.03 166.07 269.03 168.45C269.03 168.54 269.02 168.62 268.99 168.7L266.64 176.1L276 175.51C276.02 175.51 276.04 175.51 276.05 175.51C277.89 175.51 279.38 177 279.38 178.82V243.01C279.38 243.47 279 243.85 278.54 243.85C278.07 243.85 277.7 243.47 277.7 243.01V178.82C277.7 177.93 276.98 177.2 276.08 177.19L265.53 177.85C265.25 177.86 264.98 177.75 264.81 177.53C264.64 177.31 264.59 177.02 264.67 176.76L267.35 168.33C267.29 166.94 266.13 165.82 264.71 165.82H246.77C245.36 165.82 244.2 166.93 244.13 168.32L247 176.64C247.09 176.9 247.04 177.2 246.88 177.42C246.71 177.64 246.44 177.77 246.16 177.75L235.41 177.19C234.51 177.2 233.79 177.93 233.79 178.82L233.72 243.22C233.71 243.69 233.34 244.06 232.87 244.06Z" fill="#1ABE5F"/>
<path d="M275.87 202.25V186.22H235.4V202.24C234.93 202.24 234.56 202.62 234.56 203.08C234.56 203.55 234.94 203.92 235.4 203.92H275.88C276.35 203.92 276.72 203.54 276.72 203.08C276.72 202.62 276.34 202.25 275.87 202.25Z" fill="#1ABE5F"/>
<path d="M275.88 205.83H235.4V221.85H275.88V205.83Z" fill="#1ABE5F"/>
<path d="M275.87 238.93V223.75H235.4V238.93C234.93 238.93 234.56 239.31 234.56 239.77C234.56 240.24 234.94 240.61 235.4 240.61H275.88C276.35 240.61 276.72 240.23 276.72 239.77C276.72 239.3 276.34 238.93 275.87 238.93Z" fill="#1ABE5F"/>
<path d="M277.92 246.94H233.57C232.72 246.94 232.03 246.25 232.03 245.4V242.52H279.46V245.4C279.46 246.25 278.77 246.94 277.92 246.94Z" fill="#1ABE5F"/>
<path d="M238.78 179.9H272.71C274.58 179.9 276.09 181.41 276.09 183.28V184.33H235.4V183.28C235.4 181.41 236.91 179.9 238.78 179.9Z" fill="#1ABE5F"/>
<path d="M255.74 144.74C219.29 144.74 189.74 174.29 189.74 210.74C189.74 242.62 240.22 311.65 252.88 328.48C254.31 330.38 257.16 330.38 258.59 328.48C271.26 311.66 321.73 242.62 321.73 210.74C321.74 174.28 292.19 144.74 255.74 144.74ZM255.74 262.94C225.92 262.94 201.74 238.76 201.74 208.94C201.74 179.12 225.92 154.94 255.74 154.94C285.56 154.94 309.74 179.12 309.74 208.94C309.74 238.76 285.57 262.94 255.74 262.94Z" fill="#20293A"/>
<path d="M189.593 163L256 124.691L322.407 162.987C330.956 162.987 338.917 162.987 346 162.987L258.946 112.786C257.126 111.738 254.887 111.738 253.067 112.786L166 163C172.442 163 180.454 163 189.593 163Z" fill="#20293A"/>
<path d="M205.688 380.248C203.608 380.248 202.12 379.656 201.224 378.472C200.328 377.256 199.88 375.464 199.88 373.096C199.88 370.696 200.888 363.928 202.904 352.792L200.36 347.656C203.976 345.32 207.272 344.152 210.248 344.152C212.712 344.152 213.944 345.656 213.944 348.664C213.944 349.56 213.272 353.496 211.928 360.472L214.184 358.6C218.856 354.696 221.192 351.368 221.192 348.616C221.192 347.784 221.064 347.032 220.808 346.36C223.176 344.92 225.416 344.2 227.528 344.2C230.664 344.2 232.232 345.8 232.232 349C232.232 352.584 229.048 356.216 222.68 359.896C225.656 369.432 228.872 375.32 232.328 377.56C231.624 378.264 230.568 378.872 229.16 379.384C227.784 379.928 226.552 380.2 225.464 380.2C223.288 380.2 221.544 379.64 220.232 378.52C218.92 377.4 217.736 375.336 216.68 372.328L213.896 364.504L210.92 366.088C210.472 368.712 210.248 370.392 210.248 371.128C210.248 374.232 210.728 376.552 211.688 378.088C209.768 379.528 207.768 380.248 205.688 380.248ZM250.843 368.488C250.651 369.64 250.555 370.52 250.555 371.128C250.555 374.232 251.035 376.552 251.995 378.088C250.075 379.528 248.075 380.248 245.995 380.248C243.915 380.248 242.427 379.656 241.531 378.472C240.635 377.256 240.187 375.464 240.187 373.096C240.187 370.696 241.195 363.928 243.211 352.792L240.667 347.656C244.283 345.32 247.579 344.152 250.555 344.152C251.387 344.152 252.299 344.312 253.291 344.632C254.283 344.92 254.987 345.256 255.403 345.64C257.771 344.712 259.963 344.248 261.979 344.248C264.987 344.248 267.355 345.304 269.083 347.416C270.843 349.496 271.723 352.024 271.723 355C271.723 358.584 270.427 361.784 267.835 364.6C266.587 365.976 264.907 367.08 262.795 367.912C260.683 368.744 258.523 369.16 256.315 369.16C254.139 369.16 252.315 368.936 250.843 368.488ZM251.755 363.016C252.203 363.112 252.667 363.16 253.147 363.16C255.195 363.16 257.019 362.44 258.619 361C260.219 359.56 261.019 357.784 261.019 355.672C261.019 354.2 260.587 352.952 259.723 351.928C258.891 350.904 257.707 350.392 256.171 350.392C255.531 350.392 254.795 350.52 253.963 350.776C253.323 355.16 252.587 359.24 251.755 363.016ZM297.345 344.2C301.569 344.2 304.737 344.696 306.849 345.688C308.961 346.648 310.017 348.2 310.017 350.344C310.017 352.456 309.361 354.072 308.049 355.192C306.769 356.28 305.297 356.824 303.633 356.824C301.969 356.824 300.465 356.408 299.121 355.576C297.809 354.712 296.897 353.576 296.385 352.168C295.201 352.168 294.065 352.568 292.977 353.368C291.921 354.136 291.249 355.144 290.961 356.392C297.297 357.928 301.841 359.72 304.593 361.768C307.345 363.816 308.721 366.44 308.721 369.64C308.721 372.84 307.265 375.4 304.353 377.32C301.473 379.24 297.569 380.2 292.641 380.2C287.745 380.2 284.273 379.528 282.225 378.184C280.177 376.84 279.153 375.064 279.153 372.856C279.153 370.648 279.841 368.616 281.217 366.76C281.889 368.2 283.169 369.496 285.057 370.648C286.977 371.8 288.865 372.376 290.721 372.376C294.145 372.376 296.321 371.288 297.249 369.112C291.937 368.408 287.889 366.936 285.105 364.696C282.321 362.424 280.929 359.688 280.929 356.488C280.929 354.344 281.505 352.44 282.657 350.776C283.809 349.08 285.281 347.784 287.073 346.888C290.593 345.096 294.017 344.2 297.345 344.2Z" fill="#363636"/>
<path d="M204.014 395.194C204.014 394.802 204.079 394.158 204.21 393.262H201.046C200.925 393.962 200.864 394.443 200.864 394.704C200.864 395.609 201.004 396.286 201.284 396.734C200.724 397.154 200.141 397.364 199.534 397.364C198.927 397.364 198.493 397.191 198.232 396.846C197.971 396.491 197.84 395.969 197.84 395.278C197.84 394.578 198.134 392.604 198.722 389.356L197.98 387.858C199.035 387.177 199.996 386.836 200.864 386.836C201.583 386.836 201.942 387.275 201.942 388.152C201.942 388.413 201.746 389.561 201.354 391.596H204.49C204.527 391.363 204.663 390.616 204.896 389.356L204.154 387.858C205.209 387.177 206.17 386.836 207.038 386.836C207.757 386.836 208.116 387.275 208.116 388.152C208.116 388.441 207.934 389.519 207.57 391.386C207.215 393.243 207.038 394.349 207.038 394.704C207.038 395.609 207.178 396.286 207.458 396.734C206.898 397.154 206.315 397.364 205.708 397.364C205.101 397.364 204.667 397.191 204.406 396.846C204.145 396.491 204.014 395.941 204.014 395.194ZM218.171 389.664C218.694 389.664 219.142 389.874 219.515 390.294C219.898 390.714 220.089 391.325 220.089 392.128C220.089 392.921 219.949 393.659 219.669 394.34C219.389 395.012 219.02 395.563 218.563 395.992C218.106 396.421 217.588 396.757 217.009 397C216.43 397.233 215.838 397.35 215.231 397.35C214.008 397.35 213.042 397.014 212.333 396.342C211.624 395.67 211.269 394.779 211.269 393.668C211.269 392.165 211.75 390.947 212.711 390.014C213.682 389.071 214.914 388.6 216.407 388.6C216.743 388.6 217.079 388.637 217.415 388.712C217.518 389.02 217.574 389.37 217.583 389.762C217.779 389.697 217.975 389.664 218.171 389.664ZM216.449 391.61C216.449 391.349 216.51 391.055 216.631 390.728C216.762 390.401 216.967 390.14 217.247 389.944C216.015 390.205 215.166 390.705 214.699 391.442C214.298 392.077 214.097 392.73 214.097 393.402C214.097 394.074 214.232 394.615 214.503 395.026C214.783 395.427 215.138 395.628 215.567 395.628C216.519 395.628 217.191 395.007 217.583 393.766C216.827 393.299 216.449 392.581 216.449 391.61ZM232.449 391.092L232.589 391.162C233.588 389.454 234.81 388.6 236.257 388.6C237.386 388.6 237.951 389.165 237.951 390.294C237.951 390.779 237.811 391.601 237.531 392.758C237.26 393.915 237.125 394.788 237.125 395.376C237.125 395.964 237.223 396.393 237.419 396.664C236.924 397.121 236.402 397.35 235.851 397.35C234.778 397.35 234.241 396.771 234.241 395.614C234.241 395.185 234.381 394.457 234.661 393.43C234.941 392.403 235.081 391.736 235.081 391.428C235.081 391.008 234.922 390.798 234.605 390.798C234.344 390.798 234.05 390.915 233.723 391.148C233.406 391.372 233.098 391.68 232.799 392.072C232.51 392.455 232.262 392.945 232.057 393.542C231.861 394.13 231.763 394.732 231.763 395.348C231.763 395.955 231.861 396.393 232.057 396.664C231.562 397.121 231.04 397.35 230.489 397.35C229.416 397.35 228.879 396.771 228.879 395.614C228.879 395.185 229.019 394.457 229.299 393.43C229.579 392.403 229.719 391.736 229.719 391.428C229.719 391.008 229.56 390.798 229.243 390.798C228.982 390.798 228.688 390.915 228.361 391.148C228.044 391.372 227.736 391.68 227.437 392.072C227.148 392.455 226.9 392.945 226.695 393.542C226.499 394.13 226.401 394.732 226.401 395.348C226.401 395.955 226.499 396.393 226.695 396.664C226.2 397.121 225.678 397.35 225.127 397.35C224.054 397.35 223.517 396.771 223.517 395.614C223.517 395.241 223.61 394.517 223.797 393.444C223.993 392.371 224.194 391.391 224.399 390.504L223.671 389.384C224.595 388.861 225.449 388.6 226.233 388.6C227.017 388.6 227.409 388.955 227.409 389.664C227.409 390.131 227.302 390.607 227.087 391.092L227.227 391.162C228.226 389.454 229.448 388.6 230.895 388.6C231.418 388.6 231.828 388.731 232.127 388.992C232.435 389.253 232.589 389.645 232.589 390.168C232.589 390.448 232.542 390.756 232.449 391.092ZM245.313 397.35C244.034 397.35 243.045 397.019 242.345 396.356C241.654 395.693 241.309 394.797 241.309 393.668C241.309 392.165 241.822 390.947 242.849 390.014C243.885 389.071 245.182 388.6 246.741 388.6C247.609 388.6 248.267 388.796 248.715 389.188C249.163 389.571 249.387 390.079 249.387 390.714C249.387 391.582 248.962 392.305 248.113 392.884C247.273 393.453 245.971 393.743 244.207 393.752C244.235 394.349 244.37 394.821 244.613 395.166C244.856 395.502 245.159 395.67 245.523 395.67C245.887 395.67 246.2 395.549 246.461 395.306C246.732 395.063 246.867 394.667 246.867 394.116C248.23 394.116 248.911 394.438 248.911 395.082C248.911 395.633 248.575 396.151 247.903 396.636C247.231 397.112 246.368 397.35 245.313 397.35ZM246.503 390.238C246.027 390.238 245.588 390.476 245.187 390.952C244.795 391.428 244.51 391.988 244.333 392.632C245.266 392.557 245.966 392.347 246.433 392.002C246.909 391.647 247.147 391.274 247.147 390.882C247.147 390.695 247.086 390.541 246.965 390.42C246.853 390.299 246.699 390.238 246.503 390.238ZM260.811 397.364C260.205 397.364 259.771 397.191 259.509 396.846C259.248 396.491 259.117 395.969 259.117 395.278C259.117 394.578 259.411 392.604 259.999 389.356L259.257 387.858C260.312 387.177 261.273 386.836 262.141 386.836C262.692 386.836 263.033 387.097 263.163 387.62C264.115 387.592 265.385 387.354 266.971 386.906C267.046 387.326 267.083 387.681 267.083 387.97C267.083 388.567 266.855 389.039 266.397 389.384C265.949 389.72 265.427 389.888 264.829 389.888C264.232 389.888 263.635 389.743 263.037 389.454C263.037 389.454 262.995 389.683 262.911 390.14C262.846 390.504 262.739 391.059 262.589 391.806C262.907 391.881 263.205 391.918 263.485 391.918C263.868 391.843 264.288 391.736 264.745 391.596C264.792 391.755 264.815 392.016 264.815 392.38C264.815 392.735 264.671 393.019 264.381 393.234C264.092 393.449 263.765 393.556 263.401 393.556C263.037 393.556 262.669 393.514 262.295 393.43C262.193 394.018 262.141 394.443 262.141 394.704C262.141 395.609 262.281 396.286 262.561 396.734C262.001 397.154 261.418 397.364 260.811 397.364ZM276.153 389.664C276.676 389.664 277.124 389.874 277.497 390.294C277.88 390.714 278.071 391.325 278.071 392.128C278.071 392.921 277.931 393.659 277.651 394.34C277.371 395.012 277.003 395.563 276.545 395.992C276.088 396.421 275.57 396.757 274.991 397C274.413 397.233 273.82 397.35 273.213 397.35C271.991 397.35 271.025 397.014 270.315 396.342C269.606 395.67 269.251 394.779 269.251 393.668C269.251 392.165 269.732 390.947 270.693 390.014C271.664 389.071 272.896 388.6 274.389 388.6C274.725 388.6 275.061 388.637 275.397 388.712C275.5 389.02 275.556 389.37 275.565 389.762C275.761 389.697 275.957 389.664 276.153 389.664ZM274.431 391.61C274.431 391.349 274.492 391.055 274.613 390.728C274.744 390.401 274.949 390.14 275.229 389.944C273.997 390.205 273.148 390.705 272.681 391.442C272.28 392.077 272.079 392.73 272.079 393.402C272.079 394.074 272.215 394.615 272.485 395.026C272.765 395.427 273.12 395.628 273.549 395.628C274.501 395.628 275.173 395.007 275.565 393.766C274.809 393.299 274.431 392.581 274.431 391.61ZM288.261 389.664C288.784 389.664 289.232 389.874 289.605 390.294C289.988 390.714 290.179 391.325 290.179 392.128C290.179 392.921 290.039 393.659 289.759 394.34C289.479 395.012 289.111 395.563 288.653 395.992C288.196 396.421 287.678 396.757 287.099 397C286.521 397.233 285.928 397.35 285.321 397.35C284.099 397.35 283.133 397.014 282.423 396.342C281.714 395.67 281.359 394.779 281.359 393.668C281.359 392.165 281.84 390.947 282.801 390.014C283.772 389.071 285.004 388.6 286.497 388.6C286.833 388.6 287.169 388.637 287.505 388.712C287.608 389.02 287.664 389.37 287.673 389.762C287.869 389.697 288.065 389.664 288.261 389.664ZM286.539 391.61C286.539 391.349 286.6 391.055 286.721 390.728C286.852 390.401 287.057 390.14 287.337 389.944C286.105 390.205 285.256 390.705 284.789 391.442C284.388 392.077 284.187 392.73 284.187 393.402C284.187 394.074 284.323 394.615 284.593 395.026C284.873 395.427 285.228 395.628 285.657 395.628C286.609 395.628 287.281 395.007 287.673 393.766C286.917 393.299 286.539 392.581 286.539 391.61ZM298.885 395.978L298.745 395.908C298.017 396.869 297.149 397.35 296.141 397.35C295.394 397.35 294.76 397.056 294.237 396.468C293.724 395.871 293.467 395.068 293.467 394.06C293.467 392.809 293.906 391.671 294.783 390.644C295.212 390.14 295.786 389.734 296.505 389.426C297.224 389.109 298.026 388.95 298.913 388.95C299.081 388.95 299.38 388.969 299.809 389.006C299.828 388.81 299.87 388.572 299.935 388.292L299.151 387.172C300.318 386.491 301.237 386.15 301.909 386.15C302.292 386.15 302.562 386.229 302.721 386.388C302.88 386.537 302.959 386.827 302.959 387.256C302.959 387.676 302.749 388.871 302.329 390.84C301.918 392.809 301.713 394.209 301.713 395.04C301.713 395.861 301.858 396.403 302.147 396.664C301.624 397.121 301.078 397.35 300.509 397.35C299.949 397.35 299.538 397.21 299.277 396.93C299.016 396.641 298.885 396.323 298.885 395.978ZM296.099 393.528C296.099 394.06 296.234 394.48 296.505 394.788C296.785 395.096 297.13 395.25 297.541 395.25C298.073 395.25 298.558 394.998 298.997 394.494C299.146 392.833 299.356 391.395 299.627 390.182C298.554 390.182 297.695 390.527 297.051 391.218C296.416 391.909 296.099 392.679 296.099 393.528ZM310.646 390.462C310.3 390.565 310.025 390.714 309.82 390.91C309.614 391.097 309.432 391.367 309.274 391.722C310.851 391.955 311.962 392.291 312.606 392.73C313.25 393.169 313.572 393.794 313.572 394.606C313.572 395.119 313.427 395.567 313.138 395.95C312.848 396.323 312.484 396.608 312.046 396.804C311.187 397.168 310.342 397.35 309.512 397.35C307.15 397.35 305.97 396.841 305.97 395.824C305.97 395.311 306.198 394.797 306.656 394.284C306.889 394.611 307.239 394.891 307.706 395.124C308.182 395.357 308.644 395.474 309.092 395.474C309.866 395.474 310.333 395.133 310.492 394.452C309.073 394.284 308.046 393.967 307.412 393.5C306.777 393.033 306.46 392.375 306.46 391.526C306.46 390.854 306.679 390.289 307.118 389.832C307.566 389.375 308.116 389.057 308.77 388.88C309.432 388.693 310.174 388.6 310.996 388.6C311.826 388.6 312.508 388.759 313.04 389.076C313.581 389.384 313.852 389.762 313.852 390.21C313.852 390.658 313.693 391.003 313.376 391.246C313.068 391.489 312.727 391.61 312.354 391.61C311.99 391.61 311.654 391.512 311.346 391.316C311.047 391.12 310.814 390.835 310.646 390.462Z" fill="#1ABE5F"/>
</svg>
